<?xml version="1.0" encoding="UTF-8"?>
<svg id="Layer_1" data-name="Layer 1" xmlns="http://www.w3.org/2000/svg" viewBox="0 0 981.47 270.23">
  <defs>
    <style>
      .cls-1 {
        fill: #f2f3f5;
      }

      .cls-1, .cls-2, .cls-3, .cls-4 {
        stroke-width: 0px;
      }

      .cls-2 {
        fill: #c0c6cf;
      }

      .cls-3 {
        fill: #9ba2af;
      }

      .cls-4 {
        fill: #e1e4e9;
      }
    </style>
  </defs>
  <g>
    <path class="cls-3" d="M110.48,84.82l65.17-28.75c13.45-5.94,29.32.22,35.25,13.67l28.75,65.17c1.3,2.94,2.02,5.99,2.21,9.03,4.18-7.17,5.01-16.17,1.42-24.29l-28.75-65.17c-5.94-13.45-21.8-19.6-35.25-13.67l-65.17,28.75c-10.51,4.64-16.57,15.34-15.88,26.22,2.74-4.7,6.92-8.61,12.24-10.96Z"/>
    <path class="cls-2" d="M241.86,143.94c-.19-3.04-.91-6.09-2.21-9.03l-28.75-65.17c-5.94-13.45-21.8-19.6-35.25-13.67l-65.17,28.75c-5.33,2.35-9.5,6.26-12.24,10.96-2.56,4.39-3.86,9.46-3.66,14.6,2.74-4.4,6.77-8.06,11.85-10.3l65.17-28.75c13.45-5.94,29.32.22,35.25,13.67l28.75,65.17c1.39,3.15,2.11,6.44,2.23,9.69,2.93-4.72,4.38-10.29,4.03-15.92Z"/>
    <path class="cls-4" d="M235.6,150.16l-28.75-65.17c-5.94-13.45-21.8-19.6-35.25-13.67l-65.17,28.75c-5.08,2.24-9.11,5.89-11.85,10.3-2.81,4.52-4.25,9.83-4.05,15.22,2.74-4.39,6.77-8.02,11.83-10.26l65.17-28.75c13.45-5.94,29.32.22,35.25,13.67l28.75,65.17c1.4,3.17,2.12,6.47,2.24,9.74,2.84-4.54,4.29-9.88,4.08-15.3-.13-3.26-.84-6.54-2.23-9.69Z"/>
    <path class="cls-1" d="M231.52,165.42l-28.75-65.17c-5.94-13.45-21.8-19.6-35.25-13.67l-65.17,28.75c-5.06,2.23-9.09,5.87-11.83,10.26-4.54,7.27-5.55,16.6-1.84,25l28.75,65.17c5.94,13.45,21.8,19.6,35.25,13.67l65.17-28.75c10.29-4.54,16.3-14.88,15.91-25.51-.12-3.27-.84-6.57-2.24-9.74Z"/>
  </g>
  <g>
    <path class="cls-1" d="M300.16,118.87h-10.39v-14.04h10.39c1.21,0,2.19-.98,2.19-2.19v-17.85h16.53v17.85c0,1.21.98,2.19,2.19,2.19h25.75v14.04h-25.75c-1.21,0-2.19.98-2.19,2.19v35.4c0,10.97,4.53,14.77,15.8,14.77,3.22,0,7.75-.29,12.14-1.32v14.19c-6.29,1.03-11.7,1.61-16.38,1.61-19.01,0-28.08-9.07-28.08-29.1v-35.54c0-1.21-.98-2.19-2.19-2.19Z"/>
    <path class="cls-1" d="M360.16,104.83h15.06l.25,6.9c.08,2.1,2.77,2.87,3.96,1.14,3.78-5.51,9.5-8.04,16.99-8.04h8.78v16.97h-9.51c-12.87,0-19.01,6.87-19.01,19.6v42.56h-16.53v-79.12Z"/>
    <path class="cls-1" d="M451.6,102.93c23.98,0,39.78,16.82,39.78,41.39s-15.8,41.53-39.78,41.53-39.78-16.82-39.78-41.53,15.8-41.39,39.78-41.39ZM451.6,171.81c14.48,0,22.96-10.97,22.96-27.49s-8.48-27.35-22.96-27.35-23.11,10.97-23.11,27.35,8.63,27.49,23.11,27.49Z"/>
    <path class="cls-1" d="M516.44,157.77c.73,9.21,7.31,14.92,20.33,14.92,9.51,0,17.11-3.22,17.11-10.68,0-8.19-8.92-9.65-21.5-11.55-14.04-2.34-30.71-5.56-30.71-22.96,0-14.63,11.99-24.57,32.47-24.57,21.65,0,33.49,11.41,35.1,27.06h-16.53c-1.03-8.63-8.04-13.89-18.87-13.89-10.09,0-15.36,4.53-15.36,10.09,0,7.9,9.51,9.65,20.62,11.41,15.21,2.63,31.59,5.71,31.59,23.55,0,16.67-14.48,24.72-33.93,24.72-23.11,0-36.12-11.41-37-28.08h16.67Z"/>
    <path class="cls-1" d="M576,197.26c3.36.44,6.29.73,9.36.73,7.02,0,14.33-1.76,18.13-10.53l-29.4-82.63h17.4l18.84,57.3c.66,2.01,3.5,2.01,4.16,0l18.84-57.3h17.4l-29.1,82.49c-6.58,18.72-18.43,24.86-34.95,24.86-2.93,0-7.02-.15-10.68-.73v-14.19Z"/>
    <path class="cls-1" d="M660.72,104.83h15.21l.29,14.19c4.09-10.53,13.45-16.09,25.59-16.09,17.26,0,28.22,11.41,28.22,30.13v50.89h-16.53v-45.34c0-14.19-5.41-21.21-16.53-21.21-11.99,0-19.74,8.04-19.74,21.21v45.34h-16.53v-79.12Z"/>
    <path class="cls-1" d="M799.51,79.39h27.79l37.88,104.57h-22.52l-8.34-24.13h-41.97l-8.48,24.13h-22.38l38.02-104.57ZM827.75,139.81l-12.29-35.35c-.68-1.96-3.44-1.96-4.13,0l-12.41,35.35c-.5,1.42.56,2.91,2.06,2.91h24.69c1.5,0,2.56-1.48,2.07-2.91Z"/>
    <path class="cls-1" d="M874.28,79.39h20.77v104.57h-20.77v-104.57Z"/>
  </g>
</svg>