<?xml version="1.0" encoding="UTF-8"?>
<svg id="Layer_1" data-name="Layer 1" xmlns="http://www.w3.org/2000/svg" viewBox="80 45 835 180">
  <defs>
    <style>
      .cls-1 {
        fill: #f2f3f5;
        stroke-width: 0px;
      }
    </style>
  </defs>
  <path class="cls-1" d="M94.36,98.62h-14.09v-19.04h14.09c1.64,0,2.97-1.33,2.97-2.97v-24.21h22.41v24.21c0,1.64,1.33,2.97,2.97,2.97h34.92v19.04h-34.92c-1.64,0-2.97,1.33-2.97,2.97v48.01c0,14.88,6.15,20.03,21.42,20.03,4.36,0,10.51-.4,16.46-1.78v19.24c-8.53,1.39-15.87,2.18-22.22,2.18-25.79,0-38.08-12.3-38.08-39.47v-48.21c0-1.64-1.33-2.97-2.97-2.97Z"/>
  <path class="cls-1" d="M175.73,79.57h20.43l.34,9.36c.1,2.85,3.76,3.89,5.38,1.54,5.13-7.48,12.88-10.9,23.05-10.9h11.9v23.01h-12.89c-17.45,0-25.79,9.32-25.79,26.58v57.72h-22.41v-107.31Z"/>
  <path class="cls-1" d="M299.76,77c32.53,0,53.95,22.81,53.95,56.14s-21.42,56.33-53.95,56.33-53.95-22.81-53.95-56.33,21.42-56.14,53.95-56.14ZM299.76,170.42c19.64,0,31.14-14.88,31.14-37.29s-11.5-37.09-31.14-37.09-31.34,14.88-31.34,37.09,11.7,37.29,31.34,37.29Z"/>
  <path class="cls-1" d="M387.69,151.38c.99,12.5,9.92,20.23,27.57,20.23,12.89,0,23.21-4.36,23.21-14.48,0-11.11-12.1-13.09-29.16-15.67-19.04-3.18-41.66-7.54-41.66-31.14,0-19.84,16.27-33.32,44.03-33.32,29.36,0,45.42,15.47,47.61,36.7h-22.41c-1.39-11.7-10.91-18.84-25.59-18.84-13.69,0-20.83,6.15-20.83,13.69,0,10.71,12.89,13.09,27.97,15.47,20.63,3.57,42.84,7.74,42.84,31.94,0,22.61-19.64,33.52-46.02,33.52-31.34,0-48.99-15.47-50.18-38.08h22.61Z"/>
  <path class="cls-1" d="M468.47,204.94c4.56.59,8.53.99,12.69.99,9.52,0,19.44-2.38,24.6-14.28l-39.87-112.07h23.6l25.55,77.71c.89,2.72,4.74,2.72,5.64,0l25.55-77.71h23.6l-39.47,111.87c-8.93,25.39-24.99,33.72-47.41,33.72-3.97,0-9.52-.2-14.48-.99v-19.24Z"/>
  <path class="cls-1" d="M583.38,79.57h20.63l.4,19.24c5.55-14.28,18.25-21.82,34.71-21.82,23.4,0,38.28,15.47,38.28,40.86v69.03h-22.41v-61.49c0-19.24-7.34-28.76-22.41-28.76-16.26,0-26.78,10.91-26.78,28.76v61.49h-22.41v-107.31Z"/>
  <path class="cls-1" d="M771.62,45.06h37.69l51.37,141.82h-30.55l-11.31-32.73h-56.93l-11.5,32.73h-30.35l51.57-141.82ZM809.92,127.01l-16.67-47.94c-.92-2.65-4.67-2.66-5.6,0l-16.83,47.94c-.68,1.93.75,3.95,2.8,3.95h33.49c2.04,0,3.47-2.01,2.8-3.94Z"/>
  <path class="cls-1" d="M873.03,45.06h28.17v141.82h-28.17V45.06Z"/>
</svg>
