<svg xmlns="http://www.w3.org/2000/svg" viewBox="0 0 64 64">
  <rect width="64" height="64" rx="16" fill="#006054"/>
  <rect x="1" y="1" width="62" height="62" rx="15" fill="none" stroke="#F0B464" stroke-opacity="0.18"/>
  <g transform="translate(13 9) scale(0.23)">
    <g transform="translate(-82 -38)">
      <path fill="#9ba2af" d="M110.48,84.82l65.17-28.75c13.45-5.94,29.32.22,35.25,13.67l28.75,65.17c1.3,2.94,2.02,5.99,2.21,9.03,4.18-7.17,5.01-16.17,1.42-24.29l-28.75-65.17c-5.94-13.45-21.8-19.6-35.25-13.67l-65.17,28.75c-10.51,4.64-16.57,15.34-15.88,26.22,2.74-4.7,6.92-8.61,12.24-10.96Z"/>
      <path fill="#c0c6cf" d="M241.86,143.94c-.19-3.04-.91-6.09-2.21-9.03l-28.75-65.17c-5.94-13.45-21.8-19.6-35.25-13.67l-65.17,28.75c-5.33,2.35-9.5,6.26-12.24,10.96-2.56,4.39-3.86,9.46-3.66,14.6,2.74-4.4,6.77-8.06,11.85-10.3l65.17-28.75c13.45-5.94,29.32.22,35.25,13.67l28.75,65.17c1.39,3.15,2.11,6.44,2.23,9.69,2.93-4.72,4.38-10.29,4.03-15.92Z"/>
      <path fill="#e1e4e9" d="M235.6,150.16l-28.75-65.17c-5.94-13.45-21.8-19.6-35.25-13.67l-65.17,28.75c-5.08,2.24-9.11,5.89-11.85,10.3-2.81,4.52-4.25,9.83-4.05,15.22,2.74-4.39,6.77-8.02,11.83-10.26l65.17-28.75c13.45-5.94,29.32.22,35.25,13.67l28.75,65.17c1.4,3.17,2.12,6.47,2.24,9.74,2.84-4.54,4.29-9.88,4.08-15.3-.13-3.26-.84-6.54-2.23-9.69Z"/>
      <path fill="#f2f3f5" d="M231.52,165.42l-28.75-65.17c-5.94-13.45-21.8-19.6-35.25-13.67l-65.17,28.75c-5.06,2.23-9.09,5.87-11.83,10.26-4.54,7.27-5.55,16.6-1.84,25l28.75,65.17c5.94,13.45,21.8,19.6,35.25,13.67l65.17-28.75c10.29-4.54,16.3-14.88,15.91-25.51-.12-3.27-.84-6.57-2.24-9.74Z"/>
    </g>
  </g>
</svg>
